<svg width="1903" height="591" viewBox="0 0 1903 591" fill="none" xmlns="http://www.w3.org/2000/svg">
<g clip-path="url(#clip0)">
<path d="M28.381 536.933C25.7031 536.933 23.3822 535.996 21.4183 534.121C19.5437 532.157 18.6064 529.836 18.6064 527.158C18.6064 524.391 19.5437 522.07 21.4183 520.196C23.3822 518.232 25.7031 517.25 28.381 517.25C31.1483 517.25 33.4692 518.232 35.3438 520.196C37.3076 522.07 38.2895 524.391 38.2895 527.158C38.2895 529.836 37.3076 532.157 35.3438 534.121C33.4692 535.996 31.1483 536.933 28.381 536.933ZM65.2554 536.933C62.5774 536.933 60.2565 535.996 58.2927 534.121C56.4181 532.157 55.4808 529.836 55.4808 527.158C55.4808 524.391 56.4181 522.07 58.2927 520.196C60.2565 518.232 62.5774 517.25 65.2554 517.25C68.0226 517.25 70.3435 518.232 72.2181 520.196C74.182 522.07 75.1639 524.391 75.1639 527.158C75.1639 529.836 74.182 532.157 72.2181 534.121C70.3435 535.996 68.0226 536.933 65.2554 536.933ZM102.13 536.933C99.4518 536.933 97.1309 535.996 95.1671 534.121C93.2925 532.157 92.3552 529.836 92.3552 527.158C92.3552 524.391 93.2925 522.07 95.1671 520.196C97.1309 518.232 99.4518 517.25 102.13 517.25C104.897 517.25 107.218 518.232 109.093 520.196C111.056 522.07 112.038 524.391 112.038 527.158C112.038 529.836 111.056 532.157 109.093 534.121C107.218 535.996 104.897 536.933 102.13 536.933ZM131.506 449.899H121.196V435.17H148.913V474.001C152.93 469.537 158.33 467.306 165.114 467.306C174.041 467.306 180.914 470.609 185.735 477.214C190.645 483.731 193.099 492.077 193.099 502.253C193.099 512.34 190.109 520.642 184.128 527.158C178.147 533.675 169.489 536.933 158.152 536.933C149.76 536.933 140.879 535.594 131.506 532.916V449.899ZM175.692 502.521C175.692 497.076 174.577 492.523 172.345 488.863C170.113 485.204 166.945 483.374 162.838 483.374C158.732 483.374 155.384 485.471 152.796 489.667C150.207 493.862 148.913 498.906 148.913 504.797V519.258C151.323 520.33 154.045 520.865 157.081 520.865C163.24 520.865 167.882 519.169 171.006 515.777C174.13 512.385 175.692 507.966 175.692 502.521ZM211.447 527.158C205.467 520.553 202.476 512.206 202.476 502.119C202.476 492.032 205.467 483.731 211.447 477.214C217.428 470.609 225.819 467.306 236.62 467.306C247.421 467.306 255.813 470.609 261.793 477.214C267.774 483.731 270.764 492.032 270.764 502.119C270.764 512.206 267.774 520.553 261.793 527.158C255.813 533.675 247.421 536.933 236.62 536.933C225.819 536.933 217.428 533.675 211.447 527.158ZM224.301 488.73C221.355 492.211 219.883 496.674 219.883 502.119C219.883 507.565 221.355 512.072 224.301 515.643C227.247 519.124 231.354 520.865 236.62 520.865C241.887 520.865 245.993 519.124 248.939 515.643C251.884 512.072 253.357 507.565 253.357 502.119C253.357 496.674 251.884 492.211 248.939 488.73C245.993 485.159 241.887 483.374 236.62 483.374C231.354 483.374 227.247 485.159 224.301 488.73ZM289.119 527.158C283.138 520.553 280.148 512.206 280.148 502.119C280.148 492.032 283.138 483.731 289.119 477.214C295.099 470.609 303.491 467.306 314.292 467.306C325.093 467.306 333.484 470.609 339.465 477.214C345.445 483.731 348.436 492.032 348.436 502.119C348.436 512.206 345.445 520.553 339.465 527.158C333.484 533.675 325.093 536.933 314.292 536.933C303.491 536.933 295.099 533.675 289.119 527.158ZM301.973 488.73C299.028 492.211 297.555 496.674 297.555 502.119C297.555 507.565 299.028 512.072 301.973 515.643C304.919 519.124 309.025 520.865 314.292 520.865C319.558 520.865 323.665 519.124 326.611 515.643C329.556 512.072 331.029 507.565 331.029 502.119C331.029 496.674 329.556 492.211 326.611 488.73C323.665 485.159 319.558 483.374 314.292 483.374C309.025 483.374 304.919 485.159 301.973 488.73ZM354.606 449.899V435.17H382.323V493.952L387.009 492.211L395.98 483.374H391.428V468.645H426.241V483.374H418.743L401.604 500.379L418.877 521.535H429.053V533.184C427.089 534.345 425.348 535.148 423.831 535.594C422.314 536.04 419.859 536.263 416.467 536.263C413.075 536.263 410.307 535.684 408.165 534.523C406.023 533.273 404.014 531.399 402.14 528.899L386.607 508.547L382.323 510.287V520.865H391.294V535.594H354.472V520.865H364.916V449.899H354.606ZM475.911 512.296H491.309V520.062C493.809 520.508 496.755 520.731 500.147 520.731C507.109 520.731 510.591 519.571 510.591 517.25C510.591 516.357 508.494 514.661 504.298 512.162L488.23 502.521C484.302 500.111 481.401 497.567 479.526 494.889C477.652 492.211 476.715 488.863 476.715 484.846C476.715 479.312 479.08 475.027 483.811 471.992C488.543 468.868 494.97 467.306 503.093 467.306C511.216 467.306 518.938 469.136 526.257 472.796V492.747H510.859V484.445C508.27 483.731 505.369 483.374 502.155 483.374C496.799 483.374 494.121 484.356 494.121 486.319C494.121 486.587 494.167 486.81 494.255 486.989C494.434 487.078 494.568 487.212 494.657 487.391C494.747 487.48 494.88 487.614 495.059 487.792C495.238 487.882 495.416 487.971 495.594 488.06C495.773 488.149 495.996 488.283 496.264 488.462C496.532 488.64 496.755 488.819 496.933 488.997C497.201 489.087 497.514 489.265 497.871 489.533C498.317 489.801 498.719 490.024 499.076 490.202L517.152 501.182C524.382 505.645 527.998 511.001 527.998 517.25C527.998 523.409 525.454 528.23 520.365 531.711C515.277 535.103 508.136 536.799 498.942 536.799C489.748 536.799 482.07 535.103 475.911 531.711V512.296ZM563.715 520.865H572.017V535.594H535.998V520.865H546.309V483.374H535.998V468.645H559.698L561.707 475.206C568.491 469.939 574.739 467.306 580.453 467.306C589.379 467.306 595.807 469.894 599.734 475.072C608.303 469.894 615.802 467.306 622.229 467.306C630.62 467.306 636.422 469.761 639.636 474.67C642.849 479.58 644.456 486.364 644.456 495.023V521.535H655.436V533.184C651.597 535.237 646.956 536.263 641.51 536.263C636.065 536.263 632.271 535.058 630.129 532.648C628.076 530.238 627.049 526.31 627.049 520.865V495.023C627.049 491.095 626.514 488.194 625.442 486.319C624.371 484.356 622.005 483.374 618.346 483.374C614.686 483.374 610.044 485.337 604.42 489.265C604.599 491.765 604.688 493.684 604.688 495.023V521.535H615.668V535.594H580.319V520.865H587.281V495.023C587.281 491.095 586.746 488.194 585.675 486.319C584.603 484.356 582.193 483.374 578.444 483.374C574.695 483.374 569.785 486.052 563.715 491.408V520.865ZM700.945 526.891C695.41 533.586 689.251 536.933 682.467 536.933C675.682 536.933 670.371 535.192 666.533 531.711C662.694 528.23 660.775 523.365 660.775 517.116C660.775 510.778 663.275 505.422 668.273 501.048C673.272 496.674 680.636 494.487 690.367 494.487H700.945V489.667C700.945 485.471 698.311 483.374 693.045 483.374C687.778 483.374 683.092 483.954 678.985 485.114V492.747H663.587V472.796C667.961 471.1 673.049 469.761 678.851 468.779C684.743 467.797 689.653 467.306 693.58 467.306C701.346 467.306 707.416 469.359 711.79 473.465C716.165 477.482 718.351 482.883 718.351 489.667V521.535H729.331V533.184C725.492 535.237 720.672 536.263 714.87 536.263C705.587 536.263 700.945 533.14 700.945 526.891ZM683.672 520.865C689.831 520.865 695.589 517.205 700.945 509.885V509.35H690.233C686.126 509.35 683.092 510.064 681.128 511.492C679.163 512.921 678.182 514.84 678.182 517.25C678.182 519.66 680.012 520.865 683.672 520.865ZM761.033 520.865H770.673V535.594H733.316V520.865H743.626V483.374H733.316V468.645H758.489L760.095 475.741C768.397 470.118 775.628 467.306 781.787 467.306L791.294 469.314L786.206 486.319L780.18 484.713C774.109 484.713 767.728 486.587 761.033 490.336V520.865ZM793.727 483.374V469.984L805.376 468.645C808.322 461.236 810.241 455.344 811.134 450.97H822.783V468.645H838.717V483.374H822.783V516.447C822.783 517.964 823.005 519.124 823.452 519.928C823.988 520.642 825.104 520.999 826.8 520.999C828.495 520.999 831.441 520.151 835.637 518.455L842.064 532.113C836.351 535.326 830.236 536.933 823.72 536.933C817.293 536.933 812.607 535.237 809.661 531.845C806.804 528.453 805.376 524.034 805.376 518.589V483.374H793.727ZM912.142 501.584V508.68H866.884C867.152 512.251 868.625 515.197 871.303 517.518C874.071 519.749 877.284 520.865 880.944 520.865C884.603 520.865 887.683 520.597 890.183 520.062C892.771 519.526 894.557 519.035 895.539 518.589C896.61 518.143 898.172 517.339 900.225 516.179L903.439 514.438L910.401 527.962C903.081 533.943 893.976 536.933 883.086 536.933C872.196 536.933 863.849 533.675 858.047 527.158C852.334 520.553 849.478 512.206 849.478 502.119C849.478 492.032 852.334 483.731 858.047 477.214C863.849 470.609 871.705 467.306 881.613 467.306C891.611 467.306 899.198 470.519 904.376 476.946C909.554 483.374 912.142 491.586 912.142 501.584ZM894.735 495.157C894.378 491.586 893.129 488.73 890.986 486.587C888.933 484.445 885.942 483.374 882.015 483.374C878.176 483.374 874.963 484.489 872.374 486.721C869.875 488.863 868.223 491.675 867.42 495.157H894.735ZM946.578 520.865H956.219V535.594H918.864V520.865H929.174V483.374H918.864V468.645H944.039L945.645 475.741C953.947 470.118 961.178 467.306 967.337 467.306L976.839 469.314L971.751 486.319L965.73 484.713C959.663 484.713 953.273 486.587 946.578 490.336V520.865ZM993.202 538.406C991.06 537.602 989.407 536.219 988.244 534.255C987.089 532.291 986.507 530.238 986.507 528.096C986.507 525.864 987.44 523.9 989.315 522.204C991.189 520.419 993.516 519.526 996.277 519.526C999.14 519.526 1001.55 520.463 1003.51 522.338C1005.47 524.123 1006.45 526.846 1006.45 530.506C1006.45 534.077 1005.21 538.674 1002.7 544.297C1000.29 549.921 997.266 554.652 993.599 558.491L985.972 553.804C990.349 548.359 992.759 543.226 993.202 538.406ZM1058.78 483.374V469.984L1070.43 468.645C1073.38 461.236 1075.3 455.344 1076.18 450.97H1087.84V468.645H1103.77V483.374H1087.84V516.447C1087.84 517.964 1088.06 519.124 1088.5 519.928C1089.04 520.642 1090.15 520.999 1091.85 520.999C1093.54 520.999 1096.49 520.151 1100.69 518.455L1107.12 532.113C1101.4 535.326 1095.29 536.933 1088.77 536.933C1082.34 536.933 1077.66 535.237 1074.71 531.845C1071.85 528.453 1070.43 524.034 1070.43 518.589V483.374H1058.78ZM1140.24 520.865H1149.88V535.594H1112.52V520.865H1122.83V483.374H1112.52V468.645H1137.69L1139.3 475.741C1147.6 470.118 1154.83 467.306 1160.99 467.306L1170.5 469.314L1165.41 486.319L1159.38 484.713C1153.32 484.713 1146.94 486.587 1140.24 490.336V520.865ZM1214.44 526.891C1208.91 533.586 1202.75 536.933 1195.96 536.933C1189.17 536.933 1183.86 535.192 1180.03 531.711C1176.19 528.23 1174.27 523.365 1174.27 517.116C1174.27 510.778 1176.77 505.422 1181.77 501.048C1186.76 496.674 1194.13 494.487 1203.87 494.487H1214.44V489.667C1214.44 485.471 1211.81 483.374 1206.54 483.374C1201.27 483.374 1196.59 483.954 1192.48 485.114V492.747H1177.09V472.796C1181.45 471.1 1186.54 469.761 1192.35 468.779C1198.24 467.797 1203.15 467.306 1207.08 467.306C1214.85 467.306 1220.91 469.359 1225.29 473.465C1229.66 477.482 1231.85 482.883 1231.85 489.667V521.535H1242.83V533.184C1238.98 535.237 1234.16 536.263 1228.36 536.263C1219.08 536.263 1214.44 533.14 1214.44 526.891ZM1197.17 520.865C1203.33 520.865 1209.08 517.205 1214.44 509.885V509.35H1203.73C1199.62 509.35 1196.59 510.064 1194.62 511.492C1192.66 512.921 1191.68 514.84 1191.68 517.25C1191.68 519.66 1193.51 520.865 1197.17 520.865ZM1245.48 483.374V468.645H1277.21V483.374H1272.79L1282.7 512.43L1292.61 483.374H1288.19V468.645H1319.92V483.374H1311.62L1292.34 535.594H1273.06L1253.78 483.374H1245.48ZM1388.64 501.584V508.68H1343.38C1343.65 512.251 1345.12 515.197 1347.79 517.518C1350.56 519.749 1353.78 520.865 1357.43 520.865C1361.09 520.865 1364.17 520.597 1366.68 520.062C1369.26 519.526 1371.05 519.035 1372.03 518.589C1373.1 518.143 1374.67 517.339 1376.72 516.179L1379.93 514.438L1386.89 527.962C1379.57 533.943 1370.46 536.933 1359.58 536.933C1348.69 536.933 1340.34 533.675 1334.54 527.158C1328.83 520.553 1325.97 512.206 1325.97 502.119C1325.97 492.032 1328.83 483.731 1334.54 477.214C1340.34 470.609 1348.2 467.306 1358.11 467.306C1368.1 467.306 1375.69 470.519 1380.87 476.946C1386.04 483.374 1388.64 491.586 1388.64 501.584ZM1371.23 495.157C1370.87 491.586 1369.62 488.73 1367.48 486.587C1365.42 484.445 1362.43 483.374 1358.51 483.374C1354.66 483.374 1351.45 484.489 1348.86 486.721C1346.36 488.863 1344.72 491.675 1343.91 495.157H1371.23ZM1395.49 449.899V435.17H1423.2V520.865H1434.85V535.594H1395.35V520.865H1405.79V449.899H1395.49ZM1491.28 449.899H1480.97V435.17H1508.68V474.001C1512.7 469.537 1518.1 467.306 1524.89 467.306C1533.82 467.306 1540.69 470.609 1545.51 477.214C1550.42 483.731 1552.87 492.077 1552.87 502.253C1552.87 512.34 1549.89 520.642 1543.9 527.158C1537.92 533.675 1529.27 536.933 1517.93 536.933C1509.53 536.933 1500.65 535.594 1491.28 532.916V449.899ZM1535.46 502.521C1535.46 497.076 1534.36 492.523 1532.12 488.863C1529.89 485.204 1526.72 483.374 1522.61 483.374C1518.51 483.374 1515.16 485.471 1512.57 489.667C1509.99 493.862 1508.68 498.906 1508.68 504.797V519.258C1511.09 520.33 1513.82 520.865 1516.86 520.865C1523.02 520.865 1527.66 519.169 1530.78 515.777C1533.9 512.385 1535.46 507.966 1535.46 502.521ZM1624.92 501.584V508.68H1579.66C1579.93 512.251 1581.4 515.197 1584.07 517.518C1586.84 519.749 1590.06 520.865 1593.71 520.865C1597.38 520.865 1600.45 520.597 1602.96 520.062C1605.54 519.526 1607.33 519.035 1608.31 518.589C1609.38 518.143 1610.95 517.339 1613 516.179L1616.21 514.438L1623.17 527.962C1615.86 533.943 1606.75 536.933 1595.86 536.933C1584.97 536.933 1576.62 533.675 1570.82 527.158C1565.11 520.553 1562.25 512.206 1562.25 502.119C1562.25 492.032 1565.11 483.731 1570.82 477.214C1576.62 470.609 1584.48 467.306 1594.39 467.306C1604.39 467.306 1611.97 470.519 1617.15 476.946C1622.33 483.374 1624.92 491.586 1624.92 501.584ZM1607.51 495.157C1607.15 491.586 1605.9 488.73 1603.76 486.587C1601.71 484.445 1598.72 483.374 1594.79 483.374C1590.95 483.374 1587.74 484.489 1585.14 486.721C1582.65 488.863 1581 491.675 1580.19 495.157H1607.51ZM1631.64 483.374V469.984L1643.28 468.645C1646.23 461.236 1648.15 455.344 1649.05 450.97H1660.69V468.645H1676.63V483.374H1660.69V516.447C1660.69 517.964 1660.92 519.124 1661.36 519.928C1661.9 520.642 1663.02 520.999 1664.71 520.999C1666.41 520.999 1669.35 520.151 1673.54 518.455L1679.97 532.113C1674.27 535.326 1668.15 536.933 1661.63 536.933C1655.21 536.933 1650.51 535.237 1647.57 531.845C1644.72 528.453 1643.28 524.034 1643.28 518.589V483.374H1631.64ZM1685.38 483.374V469.984L1697.03 468.645C1699.97 461.236 1701.89 455.344 1702.79 450.97H1714.43V468.645H1730.37V483.374H1714.43V516.447C1714.43 517.964 1714.66 519.124 1715.11 519.928C1715.64 520.642 1716.76 520.999 1718.45 520.999C1720.15 520.999 1723.1 520.151 1727.29 518.455L1733.72 532.113C1728.01 535.326 1721.89 536.933 1715.38 536.933C1708.95 536.933 1704.26 535.237 1701.31 531.845C1698.46 528.453 1697.03 524.034 1697.03 518.589V483.374H1685.38ZM1803.8 501.584V508.68H1758.54C1758.81 512.251 1760.28 515.197 1762.96 517.518C1765.72 519.749 1768.94 520.865 1772.6 520.865C1776.26 520.865 1779.33 520.597 1781.84 520.062C1784.42 519.526 1786.21 519.035 1787.19 518.589C1788.26 518.143 1789.82 517.339 1791.88 516.179L1795.1 514.438L1802.06 527.962C1794.74 533.943 1785.63 536.933 1774.74 536.933C1763.85 536.933 1755.5 533.675 1749.7 527.158C1743.98 520.553 1741.13 512.206 1741.13 502.119C1741.13 492.032 1743.98 483.731 1749.7 477.214C1755.5 470.609 1763.36 467.306 1773.27 467.306C1783.27 467.306 1790.85 470.519 1796.03 476.946C1801.21 483.374 1803.8 491.586 1803.8 501.584ZM1786.39 495.157C1786.03 491.586 1784.78 488.73 1782.64 486.587C1780.59 484.445 1777.6 483.374 1773.67 483.374C1769.83 483.374 1766.62 484.489 1764.03 486.721C1761.53 488.863 1759.88 491.675 1759.07 495.157H1786.39ZM1838.23 520.865H1847.87V535.594H1810.52V520.865H1820.82V483.374H1810.52V468.645H1835.69L1837.3 475.741C1845.6 470.118 1852.83 467.306 1858.99 467.306L1868.49 469.314L1863.4 486.319L1857.38 484.713C1851.32 484.713 1844.93 486.587 1838.23 490.336V520.865Z" fill="#FBB81F"/>
</g>
<g clip-path="url(#clip1)">
<path d="M28.381 536.933C25.7031 536.933 23.3822 535.996 21.4183 534.121C19.5437 532.157 18.6064 529.836 18.6064 527.158C18.6064 524.391 19.5437 522.07 21.4183 520.196C23.3822 518.232 25.7031 517.25 28.381 517.25C31.1483 517.25 33.4692 518.232 35.3438 520.196C37.3076 522.07 38.2895 524.391 38.2895 527.158C38.2895 529.836 37.3076 532.157 35.3438 534.121C33.4692 535.996 31.1483 536.933 28.381 536.933ZM65.2554 536.933C62.5774 536.933 60.2565 535.996 58.2927 534.121C56.4181 532.157 55.4808 529.836 55.4808 527.158C55.4808 524.391 56.4181 522.07 58.2927 520.196C60.2565 518.232 62.5774 517.25 65.2554 517.25C68.0226 517.25 70.3435 518.232 72.2181 520.196C74.182 522.07 75.1639 524.391 75.1639 527.158C75.1639 529.836 74.182 532.157 72.2181 534.121C70.3435 535.996 68.0226 536.933 65.2554 536.933ZM102.13 536.933C99.4518 536.933 97.1309 535.996 95.1671 534.121C93.2925 532.157 92.3552 529.836 92.3552 527.158C92.3552 524.391 93.2925 522.07 95.1671 520.196C97.1309 518.232 99.4518 517.25 102.13 517.25C104.897 517.25 107.218 518.232 109.093 520.196C111.056 522.07 112.038 524.391 112.038 527.158C112.038 529.836 111.056 532.157 109.093 534.121C107.218 535.996 104.897 536.933 102.13 536.933ZM131.506 449.899H121.196V435.17H148.913V474.001C152.93 469.537 158.33 467.306 165.114 467.306C174.041 467.306 180.914 470.609 185.735 477.214C190.645 483.731 193.099 492.077 193.099 502.253C193.099 512.34 190.109 520.642 184.128 527.158C178.147 533.675 169.489 536.933 158.152 536.933C149.76 536.933 140.879 535.594 131.506 532.916V449.899ZM175.692 502.521C175.692 497.076 174.577 492.523 172.345 488.863C170.113 485.204 166.945 483.374 162.838 483.374C158.732 483.374 155.384 485.471 152.796 489.667C150.207 493.862 148.913 498.906 148.913 504.797V519.258C151.323 520.33 154.045 520.865 157.081 520.865C163.24 520.865 167.882 519.169 171.006 515.777C174.13 512.385 175.692 507.966 175.692 502.521ZM211.447 527.158C205.467 520.553 202.476 512.206 202.476 502.119C202.476 492.032 205.467 483.731 211.447 477.214C217.428 470.609 225.819 467.306 236.62 467.306C247.421 467.306 255.813 470.609 261.793 477.214C267.774 483.731 270.764 492.032 270.764 502.119C270.764 512.206 267.774 520.553 261.793 527.158C255.813 533.675 247.421 536.933 236.62 536.933C225.819 536.933 217.428 533.675 211.447 527.158ZM224.301 488.73C221.355 492.211 219.883 496.674 219.883 502.119C219.883 507.565 221.355 512.072 224.301 515.643C227.247 519.124 231.354 520.865 236.62 520.865C241.887 520.865 245.993 519.124 248.939 515.643C251.884 512.072 253.357 507.565 253.357 502.119C253.357 496.674 251.884 492.211 248.939 488.73C245.993 485.159 241.887 483.374 236.62 483.374C231.354 483.374 227.247 485.159 224.301 488.73ZM289.119 527.158C283.138 520.553 280.148 512.206 280.148 502.119C280.148 492.032 283.138 483.731 289.119 477.214C295.099 470.609 303.491 467.306 314.292 467.306C325.093 467.306 333.484 470.609 339.465 477.214C345.445 483.731 348.436 492.032 348.436 502.119C348.436 512.206 345.445 520.553 339.465 527.158C333.484 533.675 325.093 536.933 314.292 536.933C303.491 536.933 295.099 533.675 289.119 527.158ZM301.973 488.73C299.028 492.211 297.555 496.674 297.555 502.119C297.555 507.565 299.028 512.072 301.973 515.643C304.919 519.124 309.025 520.865 314.292 520.865C319.558 520.865 323.665 519.124 326.611 515.643C329.556 512.072 331.029 507.565 331.029 502.119C331.029 496.674 329.556 492.211 326.611 488.73C323.665 485.159 319.558 483.374 314.292 483.374C309.025 483.374 304.919 485.159 301.973 488.73ZM354.606 449.899V435.17H382.323V493.952L387.009 492.211L395.98 483.374H391.428V468.645H426.241V483.374H418.743L401.604 500.379L418.877 521.535H429.053V533.184C427.089 534.345 425.348 535.148 423.831 535.594C422.314 536.04 419.859 536.263 416.467 536.263C413.075 536.263 410.307 535.684 408.165 534.523C406.023 533.273 404.014 531.399 402.14 528.899L386.607 508.547L382.323 510.287V520.865H391.294V535.594H354.472V520.865H364.916V449.899H354.606ZM475.911 512.296H491.309V520.062C493.809 520.508 496.755 520.731 500.147 520.731C507.109 520.731 510.591 519.571 510.591 517.25C510.591 516.357 508.494 514.661 504.298 512.162L488.23 502.521C484.302 500.111 481.401 497.567 479.526 494.889C477.652 492.211 476.715 488.863 476.715 484.846C476.715 479.312 479.08 475.027 483.811 471.992C488.543 468.868 494.97 467.306 503.093 467.306C511.216 467.306 518.938 469.136 526.257 472.796V492.747H510.859V484.445C508.27 483.731 505.369 483.374 502.155 483.374C496.799 483.374 494.121 484.356 494.121 486.319C494.121 486.587 494.167 486.81 494.255 486.989C494.434 487.078 494.568 487.212 494.657 487.391C494.747 487.48 494.88 487.614 495.059 487.792C495.238 487.882 495.416 487.971 495.594 488.06C495.773 488.149 495.996 488.283 496.264 488.462C496.532 488.64 496.755 488.819 496.933 488.997C497.201 489.087 497.514 489.265 497.871 489.533C498.317 489.801 498.719 490.024 499.076 490.202L517.152 501.182C524.382 505.645 527.998 511.001 527.998 517.25C527.998 523.409 525.454 528.23 520.365 531.711C515.277 535.103 508.136 536.799 498.942 536.799C489.748 536.799 482.07 535.103 475.911 531.711V512.296ZM563.715 520.865H572.017V535.594H535.998V520.865H546.309V483.374H535.998V468.645H559.698L561.707 475.206C568.491 469.939 574.739 467.306 580.453 467.306C589.379 467.306 595.807 469.894 599.734 475.072C608.303 469.894 615.802 467.306 622.229 467.306C630.62 467.306 636.422 469.761 639.636 474.67C642.849 479.58 644.456 486.364 644.456 495.023V521.535H655.436V533.184C651.597 535.237 646.956 536.263 641.51 536.263C636.065 536.263 632.271 535.058 630.129 532.648C628.076 530.238 627.049 526.31 627.049 520.865V495.023C627.049 491.095 626.514 488.194 625.442 486.319C624.371 484.356 622.005 483.374 618.346 483.374C614.686 483.374 610.044 485.337 604.42 489.265C604.599 491.765 604.688 493.684 604.688 495.023V521.535H615.668V535.594H580.319V520.865H587.281V495.023C587.281 491.095 586.746 488.194 585.675 486.319C584.603 484.356 582.193 483.374 578.444 483.374C574.695 483.374 569.785 486.052 563.715 491.408V520.865ZM700.945 526.891C695.41 533.586 689.251 536.933 682.467 536.933C675.682 536.933 670.371 535.192 666.533 531.711C662.694 528.23 660.775 523.365 660.775 517.116C660.775 510.778 663.275 505.422 668.273 501.048C673.272 496.674 680.636 494.487 690.367 494.487H700.945V489.667C700.945 485.471 698.311 483.374 693.045 483.374C687.778 483.374 683.092 483.954 678.985 485.114V492.747H663.587V472.796C667.961 471.1 673.049 469.761 678.851 468.779C684.743 467.797 689.653 467.306 693.58 467.306C701.346 467.306 707.416 469.359 711.79 473.465C716.165 477.482 718.351 482.883 718.351 489.667V521.535H729.331V533.184C725.492 535.237 720.672 536.263 714.87 536.263C705.587 536.263 700.945 533.14 700.945 526.891ZM683.672 520.865C689.831 520.865 695.589 517.205 700.945 509.885V509.35H690.233C686.126 509.35 683.092 510.064 681.128 511.492C679.163 512.921 678.182 514.84 678.182 517.25C678.182 519.66 680.012 520.865 683.672 520.865ZM761.033 520.865H770.673V535.594H733.316V520.865H743.626V483.374H733.316V468.645H758.489L760.095 475.741C768.397 470.118 775.628 467.306 781.787 467.306L791.294 469.314L786.206 486.319L780.18 484.713C774.109 484.713 767.728 486.587 761.033 490.336V520.865ZM793.727 483.374V469.984L805.376 468.645C808.322 461.236 810.241 455.344 811.134 450.97H822.783V468.645H838.717V483.374H822.783V516.447C822.783 517.964 823.005 519.124 823.452 519.928C823.988 520.642 825.104 520.999 826.8 520.999C828.495 520.999 831.441 520.151 835.637 518.455L842.064 532.113C836.351 535.326 830.236 536.933 823.72 536.933C817.293 536.933 812.607 535.237 809.661 531.845C806.804 528.453 805.376 524.034 805.376 518.589V483.374H793.727ZM912.142 501.584V508.68H866.884C867.152 512.251 868.625 515.197 871.303 517.518C874.071 519.749 877.284 520.865 880.944 520.865C884.603 520.865 887.683 520.597 890.183 520.062C892.771 519.526 894.557 519.035 895.539 518.589C896.61 518.143 898.172 517.339 900.225 516.179L903.439 514.438L910.401 527.962C903.081 533.943 893.976 536.933 883.086 536.933C872.196 536.933 863.849 533.675 858.047 527.158C852.334 520.553 849.478 512.206 849.478 502.119C849.478 492.032 852.334 483.731 858.047 477.214C863.849 470.609 871.705 467.306 881.613 467.306C891.611 467.306 899.198 470.519 904.376 476.946C909.554 483.374 912.142 491.586 912.142 501.584ZM894.735 495.157C894.378 491.586 893.129 488.73 890.986 486.587C888.933 484.445 885.942 483.374 882.015 483.374C878.176 483.374 874.963 484.489 872.374 486.721C869.875 488.863 868.223 491.675 867.42 495.157H894.735ZM946.578 520.865H956.219V535.594H918.864V520.865H929.174V483.374H918.864V468.645H944.039L945.645 475.741C953.947 470.118 961.178 467.306 967.337 467.306L976.839 469.314L971.751 486.319L965.73 484.713C959.663 484.713 953.273 486.587 946.578 490.336V520.865ZM993.202 538.406C991.06 537.602 989.407 536.219 988.244 534.255C987.089 532.291 986.507 530.238 986.507 528.096C986.507 525.864 987.44 523.9 989.315 522.204C991.189 520.419 993.516 519.526 996.277 519.526C999.14 519.526 1001.55 520.463 1003.51 522.338C1005.47 524.123 1006.45 526.846 1006.45 530.506C1006.45 534.077 1005.21 538.674 1002.7 544.297C1000.29 549.921 997.266 554.652 993.599 558.491L985.972 553.804C990.349 548.359 992.759 543.226 993.202 538.406ZM1058.78 483.374V469.984L1070.43 468.645C1073.38 461.236 1075.3 455.344 1076.18 450.97H1087.84V468.645H1103.77V483.374H1087.84V516.447C1087.84 517.964 1088.06 519.124 1088.5 519.928C1089.04 520.642 1090.15 520.999 1091.85 520.999C1093.54 520.999 1096.49 520.151 1100.69 518.455L1107.12 532.113C1101.4 535.326 1095.29 536.933 1088.77 536.933C1082.34 536.933 1077.66 535.237 1074.71 531.845C1071.85 528.453 1070.43 524.034 1070.43 518.589V483.374H1058.78ZM1140.24 520.865H1149.88V535.594H1112.52V520.865H1122.83V483.374H1112.52V468.645H1137.69L1139.3 475.741C1147.6 470.118 1154.83 467.306 1160.99 467.306L1170.5 469.314L1165.41 486.319L1159.38 484.713C1153.32 484.713 1146.94 486.587 1140.24 490.336V520.865ZM1214.44 526.891C1208.91 533.586 1202.75 536.933 1195.96 536.933C1189.17 536.933 1183.86 535.192 1180.03 531.711C1176.19 528.23 1174.27 523.365 1174.27 517.116C1174.27 510.778 1176.77 505.422 1181.77 501.048C1186.76 496.674 1194.13 494.487 1203.87 494.487H1214.44V489.667C1214.44 485.471 1211.81 483.374 1206.54 483.374C1201.27 483.374 1196.59 483.954 1192.48 485.114V492.747H1177.09V472.796C1181.45 471.1 1186.54 469.761 1192.35 468.779C1198.24 467.797 1203.15 467.306 1207.08 467.306C1214.85 467.306 1220.91 469.359 1225.29 473.465C1229.66 477.482 1231.85 482.883 1231.85 489.667V521.535H1242.83V533.184C1238.98 535.237 1234.16 536.263 1228.36 536.263C1219.08 536.263 1214.44 533.14 1214.44 526.891ZM1197.17 520.865C1203.33 520.865 1209.08 517.205 1214.44 509.885V509.35H1203.73C1199.62 509.35 1196.59 510.064 1194.62 511.492C1192.66 512.921 1191.68 514.84 1191.68 517.25C1191.68 519.66 1193.51 520.865 1197.17 520.865ZM1245.48 483.374V468.645H1277.21V483.374H1272.79L1282.7 512.43L1292.61 483.374H1288.19V468.645H1319.92V483.374H1311.62L1292.34 535.594H1273.06L1253.78 483.374H1245.48ZM1388.64 501.584V508.68H1343.38C1343.65 512.251 1345.12 515.197 1347.79 517.518C1350.56 519.749 1353.78 520.865 1357.43 520.865C1361.09 520.865 1364.17 520.597 1366.68 520.062C1369.26 519.526 1371.05 519.035 1372.03 518.589C1373.1 518.143 1374.67 517.339 1376.72 516.179L1379.93 514.438L1386.89 527.962C1379.57 533.943 1370.46 536.933 1359.58 536.933C1348.69 536.933 1340.34 533.675 1334.54 527.158C1328.83 520.553 1325.97 512.206 1325.97 502.119C1325.97 492.032 1328.83 483.731 1334.54 477.214C1340.34 470.609 1348.2 467.306 1358.11 467.306C1368.1 467.306 1375.69 470.519 1380.87 476.946C1386.04 483.374 1388.64 491.586 1388.64 501.584ZM1371.23 495.157C1370.87 491.586 1369.62 488.73 1367.48 486.587C1365.42 484.445 1362.43 483.374 1358.51 483.374C1354.66 483.374 1351.45 484.489 1348.86 486.721C1346.36 488.863 1344.72 491.675 1343.91 495.157H1371.23ZM1395.49 449.899V435.17H1423.2V520.865H1434.85V535.594H1395.35V520.865H1405.79V449.899H1395.49ZM1491.28 449.899H1480.97V435.17H1508.68V474.001C1512.7 469.537 1518.1 467.306 1524.89 467.306C1533.82 467.306 1540.69 470.609 1545.51 477.214C1550.42 483.731 1552.87 492.077 1552.87 502.253C1552.87 512.34 1549.89 520.642 1543.9 527.158C1537.92 533.675 1529.27 536.933 1517.93 536.933C1509.53 536.933 1500.65 535.594 1491.28 532.916V449.899ZM1535.46 502.521C1535.46 497.076 1534.36 492.523 1532.12 488.863C1529.89 485.204 1526.72 483.374 1522.61 483.374C1518.51 483.374 1515.16 485.471 1512.57 489.667C1509.99 493.862 1508.68 498.906 1508.68 504.797V519.258C1511.09 520.33 1513.82 520.865 1516.86 520.865C1523.02 520.865 1527.66 519.169 1530.78 515.777C1533.9 512.385 1535.46 507.966 1535.46 502.521ZM1624.92 501.584V508.68H1579.66C1579.93 512.251 1581.4 515.197 1584.07 517.518C1586.84 519.749 1590.06 520.865 1593.71 520.865C1597.38 520.865 1600.45 520.597 1602.96 520.062C1605.54 519.526 1607.33 519.035 1608.31 518.589C1609.38 518.143 1610.95 517.339 1613 516.179L1616.21 514.438L1623.17 527.962C1615.86 533.943 1606.75 536.933 1595.86 536.933C1584.97 536.933 1576.62 533.675 1570.82 527.158C1565.11 520.553 1562.25 512.206 1562.25 502.119C1562.25 492.032 1565.11 483.731 1570.82 477.214C1576.62 470.609 1584.48 467.306 1594.39 467.306C1604.39 467.306 1611.97 470.519 1617.15 476.946C1622.33 483.374 1624.92 491.586 1624.92 501.584ZM1607.51 495.157C1607.15 491.586 1605.9 488.73 1603.76 486.587C1601.71 484.445 1598.72 483.374 1594.79 483.374C1590.95 483.374 1587.74 484.489 1585.14 486.721C1582.65 488.863 1581 491.675 1580.19 495.157H1607.51ZM1631.64 483.374V469.984L1643.28 468.645C1646.23 461.236 1648.15 455.344 1649.05 450.97H1660.69V468.645H1676.63V483.374H1660.69V516.447C1660.69 517.964 1660.92 519.124 1661.36 519.928C1661.9 520.642 1663.02 520.999 1664.71 520.999C1666.41 520.999 1669.35 520.151 1673.54 518.455L1679.97 532.113C1674.27 535.326 1668.15 536.933 1661.63 536.933C1655.21 536.933 1650.51 535.237 1647.57 531.845C1644.72 528.453 1643.28 524.034 1643.28 518.589V483.374H1631.64ZM1685.38 483.374V469.984L1697.03 468.645C1699.97 461.236 1701.89 455.344 1702.79 450.97H1714.43V468.645H1730.37V483.374H1714.43V516.447C1714.43 517.964 1714.66 519.124 1715.11 519.928C1715.64 520.642 1716.76 520.999 1718.45 520.999C1720.15 520.999 1723.1 520.151 1727.29 518.455L1733.72 532.113C1728.01 535.326 1721.89 536.933 1715.38 536.933C1708.95 536.933 1704.26 535.237 1701.31 531.845C1698.46 528.453 1697.03 524.034 1697.03 518.589V483.374H1685.38ZM1803.8 501.584V508.68H1758.54C1758.81 512.251 1760.28 515.197 1762.96 517.518C1765.72 519.749 1768.94 520.865 1772.6 520.865C1776.26 520.865 1779.33 520.597 1781.84 520.062C1784.42 519.526 1786.21 519.035 1787.19 518.589C1788.26 518.143 1789.82 517.339 1791.88 516.179L1795.1 514.438L1802.06 527.962C1794.74 533.943 1785.63 536.933 1774.74 536.933C1763.85 536.933 1755.5 533.675 1749.7 527.158C1743.98 520.553 1741.13 512.206 1741.13 502.119C1741.13 492.032 1743.98 483.731 1749.7 477.214C1755.5 470.609 1763.36 467.306 1773.27 467.306C1783.27 467.306 1790.85 470.519 1796.03 476.946C1801.21 483.374 1803.8 491.586 1803.8 501.584ZM1786.39 495.157C1786.03 491.586 1784.78 488.73 1782.64 486.587C1780.59 484.445 1777.6 483.374 1773.67 483.374C1769.83 483.374 1766.62 484.489 1764.03 486.721C1761.53 488.863 1759.88 491.675 1759.07 495.157H1786.39ZM1838.23 520.865H1847.87V535.594H1810.52V520.865H1820.82V483.374H1810.52V468.645H1835.69L1837.3 475.741C1845.6 470.118 1852.83 467.306 1858.99 467.306L1868.49 469.314L1863.4 486.319L1857.38 484.713C1851.32 484.713 1844.93 486.587 1838.23 490.336V520.865Z" fill="#FBB81F"/>
</g>
<path d="M21.0544 155.506V281.463C21.0544 337.238 58.3613 353.86 93.0826 353.86C129.651 353.86 145.164 338.346 145.164 321.355V294.021H143.318C135.93 296.976 128.173 298.454 111.551 298.454C97.8844 298.454 89.3888 290.328 89.3888 276.661V203.155H114.506C130.389 203.155 148.858 189.858 148.858 172.497V147.749H89.3888V98.2527H82.0013C67.2263 98.2527 54.6676 104.901 45.4332 111.92C31.7663 122.262 21.0544 137.037 21.0544 155.506Z" fill="#020180"/>
<path d="M294.023 200.202V174.346C294.023 155.507 277.77 141.102 242.679 141.102C196.508 141.102 168.804 173.607 168.804 214.607V302.888C168.804 336.871 187.273 350.907 217.562 350.907H236.769V229.382C236.769 204.634 250.067 196.139 267.058 196.139C276.293 196.139 282.941 196.877 291.806 200.202H294.023Z" fill="#020180"/>
<path d="M485.36 261.519V230.122C485.36 170.283 448.792 141.841 392.647 141.841C334.655 141.841 308.429 166.959 308.429 192.076V216.824H310.276C324.682 203.527 338.718 194.662 376.763 194.662C404.467 194.662 417.395 198.725 417.395 215.347V223.842H407.422C333.547 223.842 301.042 246.744 301.042 291.807C301.042 337.979 348.691 356.448 387.845 356.448C461.72 356.448 485.36 335.394 485.36 261.519ZM418.872 282.573C418.872 301.042 407.791 307.321 395.232 307.321C375.655 307.321 367.529 300.672 367.529 287.744C367.529 274.077 378.241 267.429 404.836 267.429H418.872V282.573Z" fill="#020180"/>
<path d="M701.442 219.039C706.244 205.003 711.046 190.228 711.046 175.453C711.046 158.462 700.334 147.75 682.604 147.75H648.991C641.604 193.183 623.504 250.806 610.576 274.815C601.342 257.454 583.242 209.436 576.963 176.931C574.377 164.002 559.972 147.75 537.071 147.75H500.502C509.367 207.219 537.809 281.833 565.143 324.311C576.963 342.78 588.044 353.861 611.315 353.861H630.153C654.532 326.897 688.145 257.824 701.442 219.039Z" fill="#020180"/>
<path d="M924.916 223.103C924.916 171.391 883.546 141.471 830.356 141.471C767.562 141.471 725.823 191.706 725.823 253.392C725.823 309.537 762.76 356.817 832.942 356.817C890.933 356.817 911.988 333.546 911.988 307.69V291.438H909.402C897.952 299.195 877.636 304.366 845.131 304.366C815.95 304.366 799.328 294.762 795.265 274.446H825.554C894.258 274.446 924.916 263.735 924.916 223.103ZM859.906 215.346C859.906 224.211 853.996 229.383 820.752 229.383H793.418C795.265 209.806 805.608 193.923 830.356 193.923C850.672 193.923 859.906 205.004 859.906 215.346Z" fill="#020180"/>
<path d="M1068.97 321.355V296.977H1053.46C1033.88 296.977 1023.91 291.436 1023.91 273.337V125.956C1023.91 91.6041 1009.13 77.5679 978.475 77.5679H953.727V283.679C953.727 331.698 985.862 353.86 1023.17 353.86C1045.33 353.86 1068.97 346.103 1068.97 321.355Z" fill="#020180"/>
<path d="M1297.24 246.372C1297.24 180.254 1257.35 141.839 1201.95 141.839C1174.24 141.839 1161.68 154.767 1150.23 169.542V121.893C1150.23 89.0185 1138.04 77.5679 1099.26 77.5679H1082.27V258.562C1082.27 318.4 1116.25 356.446 1185.69 356.446C1250.7 356.446 1297.24 314.337 1297.24 246.372ZM1227.06 253.76C1227.06 285.157 1212.29 303.256 1190.13 303.256C1166.12 303.256 1150.6 289.959 1150.6 250.066C1150.6 216.822 1166.49 196.876 1189.02 196.876C1213.4 196.876 1227.06 212.759 1227.06 253.76Z" fill="#020180"/>
<path d="M1525.15 223.103C1525.15 171.391 1483.78 141.471 1430.59 141.471C1367.8 141.471 1326.06 191.706 1326.06 253.392C1326.06 309.537 1362.99 356.817 1433.18 356.817C1491.17 356.817 1512.22 333.546 1512.22 307.69V291.438H1509.64C1498.19 299.195 1477.87 304.366 1445.37 304.366C1416.18 304.366 1399.56 294.762 1395.5 274.446H1425.79C1494.49 274.446 1525.15 263.735 1525.15 223.103ZM1460.14 215.346C1460.14 224.211 1454.23 229.383 1420.99 229.383H1393.65C1395.5 209.806 1405.84 193.923 1430.59 193.923C1450.91 193.923 1460.14 205.004 1460.14 215.346Z" fill="#020180"/>
<path d="M1553.96 155.506V281.463C1553.96 337.238 1591.27 353.86 1625.99 353.86C1662.56 353.86 1678.07 338.346 1678.07 321.355V294.021H1676.22C1668.84 296.976 1661.08 298.454 1644.46 298.454C1630.79 298.454 1622.3 290.328 1622.3 276.661V203.155H1647.41C1663.3 203.155 1681.76 189.858 1681.76 172.497V147.749H1622.3V98.2527H1614.91C1600.13 98.2527 1587.57 104.901 1578.34 111.92C1564.67 122.262 1553.96 137.037 1553.96 155.506Z" fill="#020180"/>
<path d="M1879.75 261.519V230.122C1879.75 170.283 1843.18 141.841 1787.04 141.841C1729.05 141.841 1702.82 166.959 1702.82 192.076V216.824H1704.67C1719.07 203.527 1733.11 194.662 1771.15 194.662C1798.86 194.662 1811.79 198.725 1811.79 215.347V223.842H1801.81C1727.94 223.842 1695.43 246.744 1695.43 291.807C1695.43 337.979 1743.08 356.448 1782.24 356.448C1856.11 356.448 1879.75 335.394 1879.75 261.519ZM1813.26 282.573C1813.26 301.042 1802.18 307.321 1789.62 307.321C1770.05 307.321 1761.92 300.672 1761.92 287.744C1761.92 274.077 1772.63 267.429 1799.23 267.429H1813.26V282.573Z" fill="#020180"/>
<defs>
<clipPath id="clip0">
<rect x="18.4688" y="434.016" width="1856.11" height="129.281" fill="white"/>
</clipPath>
<clipPath id="clip1">
<rect x="18.4688" y="434.016" width="1856.11" height="129.281" fill="white"/>
</clipPath>
</defs>
</svg>
